<svg xmlns="http://www.w3.org/2000/svg" viewBox="0 0 512 512"><title>frog</title><g style="isolation:isolate"><g id="Layer_1" data-name="Layer 1"><circle cx="256" cy="256" r="256" fill="#f4f0df"/><path id="_3" data-name="3" d="M503.81,285.47c-1.14-1.25-2.34-2.45-3.59-3.59s-2.38-2.49-3.65-3.65-2.35-2.46-3.61-3.61-2.35-2.47-3.62-3.62-2.36-2.47-3.62-3.62-2.37-2.47-3.62-3.62-2.35-2.45-3.6-3.6-2.37-2.47-3.63-3.63-2.37-2.47-3.63-3.62-2.35-2.47-3.61-3.62-2.35-2.45-3.6-3.6-2.38-2.5-3.66-3.67-2.34-2.43-3.58-3.57-2.38-2.49-3.66-3.66-2.35-2.45-3.61-3.6-2.35-2.47-3.61-3.62-2.36-2.46-3.62-3.61-2.35-2.46-3.61-3.61-2.38-2.49-3.66-3.66-2.33-2.44-3.58-3.58-2.37-2.47-3.63-3.63-2.38-2.49-3.65-3.65-2.35-2.44-3.59-3.59-2.37-2.47-3.63-3.63-2.35-2.45-3.6-3.6-2.38-2.48-3.65-3.64-2.34-2.45-3.6-3.6-2.35-2.46-3.61-3.62-2.38-2.49-3.65-3.65-2.34-2.45-3.59-3.59-2.37-2.47-3.64-3.63-2.35-2.46-3.61-3.61-2.35-2.46-3.61-3.61-2.37-2.49-3.64-3.65-2.35-2.45-3.6-3.6-2.36-2.47-3.62-3.62-2.37-2.47-3.64-3.63a55.62,55.62,0,0,0-96.23,29.74c-.24,1.65-.36,3.28-.44,4.92,0,.52,0,1-.06,1.57,0,.31,0,.63,0,.94h0c-4.13-.54-8.35-.84-12.6-1h0c-1.15-1.26-2.35-2.47-3.61-3.61s-2.38-2.49-3.65-3.64-2.35-2.46-3.61-3.61-2.35-2.47-3.62-3.62-2.35-2.47-3.62-3.62-2.35-2.47-3.6-3.61-2.38-2.49-3.65-3.65-2.34-2.46-3.59-3.6-2.37-2.48-3.63-3.63-2.36-2.47-3.62-3.62a55.62,55.62,0,1,0-78.48,78.68c1.15,1.26,2.35,2.47,3.61,3.61.05.07.13.13.2.2-11.08,14.55-17.44,31.59-17.33,49.8.14,23,10.54,44.09,27.77,60.49q1.79,1.88,3.68,3.68c1.16,1.21,2.34,2.39,3.55,3.55s2.41,2.47,3.67,3.67,2.37,2.43,3.61,3.61,2.38,2.44,3.63,3.62,2.37,2.44,3.62,3.62,2.35,2.41,3.58,3.58,2.41,2.47,3.67,3.67,2.36,2.41,3.59,3.59,2.4,2.46,3.65,3.65,2.35,2.41,3.58,3.58,2.39,2.46,3.64,3.64,2.38,2.44,3.63,3.63,2.35,2.4,3.56,3.57,2.41,2.46,3.67,3.66,2.38,2.44,3.62,3.63,2.37,2.42,3.59,3.59,2.4,2.47,3.66,3.66,2.34,2.39,3.56,3.55,2.41,2.48,3.67,3.68,2.37,2.42,3.61,3.6,2.36,2.42,3.59,3.6,2.41,2.47,3.67,3.67,2.34,2.39,3.56,3.55,2.41,2.48,3.68,3.68,2.34,2.39,3.56,3.56,2.41,2.47,3.66,3.66,2.38,2.44,3.62,3.62,2.35,2.41,3.57,3.57,2.4,2.45,3.65,3.65,2.38,2.44,3.63,3.63,2.4,2.46,3.65,3.65,2.35,2.41,3.58,3.58,2.37,2.43,3.61,3.61,2.39,2.45,3.64,3.64,2.35,2.41,3.58,3.58,2.41,2.48,3.67,3.68,2.37,2.42,3.6,3.59,2.36,2.42,3.59,3.6,2.41,2.48,3.67,3.68,2.35,2.41,3.58,3.57,2.38,2.44,3.62,3.63,2.38,2.44,3.63,3.63,2.38,2.44,3.62,3.62c.15.16.32.31.47.47,99.45-25.51,175.49-109.3,189.72-212.81-.7-.71-1.37-1.43-2.1-2.11Q505.71,287.19,503.81,285.47Z" fill="#e3e2e1" style="mix-blend-mode:multiply"/><g id="_3-2" data-name="3"><g id="icon"><path d="M373.94,282.32c.31,52.81-53.53,95.94-120.26,96.33s-121.07-42.09-121.38-94.9,53.52-95.94,120.26-96.33S373.62,229.51,373.94,282.32Z" fill="#48cfad"/><path d="M238.33,181.29a55.64,55.64,0,1,1-62.8-47.4A55.65,55.65,0,0,1,238.33,181.29Z" fill="#48cfad"/><path d="M273.67,181.29a55.63,55.63,0,1,0,62.79-47.4A55.64,55.64,0,0,0,273.67,181.29Z" fill="#48cfad"/><path d="M250.71,201.33c-.16,2.16-1.43,3.82-2.81,3.72s-2.38-1.94-2.23-4.11,1.42-3.82,2.81-3.72S250.88,199.17,250.71,201.33Z" fill="#7f4438"/><path d="M260.16,201.33c.16,2.16,1.42,3.82,2.81,3.72s2.38-1.94,2.23-4.11-1.43-3.82-2.82-3.72S260,199.17,260.16,201.33Z" fill="#7f4438"/><path d="M252.82,242.45c-10.09-.3-27.22-3.21-32.44-15.56h0a1.71,1.71,0,0,1,.94-2.23h0a1.71,1.71,0,0,1,2.23.95h0c3.71,9.78,19.69,13.3,29.33,13.4h0c.56,0,1.14,0,1.71,0h0c12,0,25-2.67,32-12.35h0a1.7,1.7,0,0,1,2.39-.38h0a1.71,1.71,0,0,1,.39,2.38h0c-8.1,11.12-22.33,13.76-34.75,13.77h-1.79Z" fill="#7f4438"/><path d="M217.06,188.79a33.83,33.83,0,1,1-34-33.63A33.84,33.84,0,0,1,217.06,188.79Z" fill="#f4f0df"/><path d="M201,188.88a17.8,17.8,0,1,1-17.9-17.69A17.8,17.8,0,0,1,201,188.88Z" fill="#7f4438"/><path d="M294.93,188.79a33.83,33.83,0,1,0,34-33.63A33.84,33.84,0,0,0,294.93,188.79Z" fill="#f4f0df"/><path d="M311,188.88a17.8,17.8,0,1,0,17.9-17.69A17.8,17.8,0,0,0,311,188.88Z" fill="#7f4438"/><path d="M173.44,168.74A8.44,8.44,0,0,1,180.56,179a9.84,9.84,0,0,1-10.73,7.82,8.43,8.43,0,0,1-7.1-10.21A9.82,9.82,0,0,1,173.44,168.74Z" fill="#f4f0df" fill-rule="evenodd"/><path d="M314.69,168.74A8.44,8.44,0,0,1,321.81,179a9.82,9.82,0,0,1-10.71,7.82A8.41,8.41,0,0,1,304,176.56,9.81,9.81,0,0,1,314.69,168.74Z" fill="#f4f0df" fill-rule="evenodd"/></g><path id="shadow" d="M373.94,282.32c-.1-16.85-5.72-32.63-15.46-46.31a55.63,55.63,0,1,0-85.34-47.3A153.6,153.6,0,0,0,256,187.46V378.59C321.66,377.22,374.24,334.51,373.94,282.32Z" fill="#eeece7" style="mix-blend-mode:multiply"/></g></g></g></svg>